# xmcd
#
# Track frame offsets:
#	150
#	22387
#	42212
#	71325
#
# Disc length: 1197 seconds
#
# Revision: 2
# Processed by: cddbd v1.5.2PL0 Copyright (c) Steve Scherf et al.
# Submitted via: AudioConverter v4.5 Copyright (c) AC Productions Ltd
#
DISCID=3104ab04
DTITLE=Dire Straits - On Every Street - Limited Edition
DYEAR=1991
DGENRE=Rock
TTITLE0=Heavy Fuel
TTITLE1=Millionaire Blues
TTITLE2=Calling Elvis (Bob Clearmountain re-mix)
TTITLE3=Money For Nothing
EXTD=
EXTT0=
EXTT1=
EXTT2=
EXTT3=
PLAYORDER=
